<svg xmlns="http://www.w3.org/2000/svg" width="361" height="128" viewBox="0 0 361 128">
  <g fill="none">
    <path fill="#0064B4" stroke="#0064B4" stroke-width="2" d="M109.085621,69.5414575 C109.249312,63.5940458 110.933962,58.9485183 114.214035,55.6411116 C117.483967,52.3439304 122.0468,50.733945 127.866,50.733945 C131.81034,50.733945 135.143427,51.4179957 137.857043,52.8159195 C140.518868,54.1871626 142.519788,55.8844079 143.838541,57.9298199 C145.138186,59.9455958 145.853185,61.9587565 145.959382,63.9765038 C145.98733,64.2432978 145.882616,64.414018 145.716682,64.5688897 C145.493445,64.7772441 145.252874,64.901945 144.98,64.901945 L141.196,64.901945 C140.937627,64.901945 140.712973,64.8958579 140.574965,64.7716508 C140.365359,64.5830059 140.182083,64.2209836 139.975411,63.7259705 C138.853568,60.6837392 137.28782,58.5520422 135.334456,57.2808054 C133.384373,56.011704 130.928312,55.355945 127.952,55.355945 C124.026267,55.355945 120.926817,56.597064 118.626536,59.0216845 C116.369883,61.4003189 115.096306,65.0103777 114.912408,69.9153852 L114.825592,72.9539515 L114.912702,76.0014186 C115.096306,80.8975122 116.369883,84.507571 118.626536,86.8862054 C120.926817,89.3108259 124.026267,90.551945 127.952,90.551945 C130.992233,90.551945 133.463764,89.8926228 135.383592,88.6230592 C137.306784,87.3512705 138.857557,85.2178687 139.978946,82.1729329 C140.184185,81.6827603 140.366561,81.3238023 140.574965,81.1362391 C140.712973,81.012032 140.937627,81.005945 141.196,81.005945 L144.98,81.005945 C145.252874,81.005945 145.493445,81.1306458 145.716682,81.3390002 C145.882616,81.4938719 145.98733,81.6645921 145.964116,81.8735134 C145.853331,83.8933093 145.137119,85.8779487 143.838541,87.89207 C142.518236,89.9398899 140.515031,91.6528199 137.849991,93.0526391 C135.13829,94.476967 131.80746,95.173945 127.866,95.173945 C122.0468,95.173945 117.483967,93.5639595 114.214035,90.2667783 C110.933962,86.9593716 109.249312,82.3138441 109.085688,76.3689528 L109.000312,72.9539445 L109.085621,69.5414575 Z M201.47,93.335945 L201.47,52.657945 C201.47,52.3533455 201.562575,52.0909389 201.761793,51.8763961 C201.942009,51.6823174 202.173333,51.593945 202.448,51.593945 L206.06,51.593945 C206.385111,51.593945 206.66032,51.6624782 206.857893,51.8600517 C207.055467,52.0576253 207.124,52.3328338 207.124,52.657945 L207.124,62.1251317 C208.449317,54.9873591 212.842834,51.593945 220.078,51.593945 L223.432,51.593945 C223.743826,51.593945 224.009271,51.6394298 224.186893,51.8170517 C224.364515,51.9946737 224.41,52.2601189 224.41,52.571945 L224.41,55.753945 C224.41,56.0480462 224.338765,56.3001324 224.159197,56.4946649 C223.988091,56.6800287 223.732222,56.731945 223.432,56.731945 L218.53,56.731945 C215.063673,56.731945 212.357361,57.7720009 210.378348,59.7824277 C208.403016,61.7891139 207.382,64.5067526 207.382,67.965945 L207.382,93.335945 C207.382,93.6106116 207.293628,93.8419356 207.099549,94.0221515 C206.885006,94.2213698 206.622599,94.313945 206.318,94.313945 L202.448,94.313945 C202.164522,94.313945 201.923069,94.2348 201.736107,94.0478382 C201.549145,93.8608763 201.47,93.6194232 201.47,93.335945 Z M153.385547,69.2870374 C153.605216,63.6673354 155.343031,59.1519809 158.648712,55.7643409 C161.946061,52.3852395 166.549988,50.733945 172.424,50.733945 C178.298012,50.733945 182.901939,52.3852395 186.199288,55.7643409 C189.506482,59.1535307 191.244373,63.6714669 191.462753,69.2947507 C191.577966,70.5769336 191.634,71.7794186 191.634,72.953945 C191.634,74.1284713 191.577966,75.3309563 191.466107,76.5614092 C191.24428,82.2388245 189.533459,86.7588501 186.279496,90.1495343 C183.037011,93.528259 178.404255,95.173945 172.424,95.173945 C166.443745,95.173945 161.810989,93.528259 158.568504,90.1495343 C155.316028,86.7604001 153.605284,82.2429568 153.385547,76.6208537 L153.30027,72.953945 L153.385547,69.2870374 Z M159.212517,69.6531272 L159.125654,72.953945 L159.212517,76.2547627 C159.395068,80.9067781 160.672462,84.4484734 162.961239,86.920353 C165.291969,89.4375406 168.437399,90.723945 172.424,90.723945 C176.410601,90.723945 179.556031,89.4375406 181.886761,86.920353 C184.169425,84.4550758 185.446101,80.9256902 185.633996,76.2920155 C185.691178,75.6928309 185.722,74.5805048 185.722,72.953945 C185.722,71.3284958 185.69122,70.2165783 185.634106,69.6178658 C185.446569,64.9834951 184.169844,61.4532665 181.886761,58.9875369 C179.556031,56.4703494 176.410601,55.183945 172.424,55.183945 C168.437399,55.183945 165.291969,56.4703494 162.961239,58.9875369 C160.672462,61.4594165 159.395068,65.0011118 159.212517,69.6531272 Z M227.881157,70.0729225 C228.211812,64.1603383 230.023253,59.4369873 233.367869,55.9278825 C236.684605,52.4480281 241.123994,50.733945 246.662,50.733945 C252.631286,50.733945 257.278729,52.6015924 260.56842,56.4078462 C263.898276,60.2605722 265.528,65.4993181 265.528,72.093945 L265.528,73.641945 C265.528,73.9254232 265.448855,74.1668763 265.261893,74.3538382 C265.074931,74.5408 264.833478,74.619945 264.55,74.619945 L233.708,74.619945 L233.708,76.4167412 C233.88683,80.3827018 235.113895,83.7633244 237.368787,86.5667036 C239.686248,89.4478724 242.75288,90.895945 246.576,90.895945 C249.493701,90.895945 251.858372,90.2984567 253.686289,89.1521356 C255.500404,88.0144705 256.860272,86.8229161 257.782,85.593945 C258.156824,85.0941802 258.421083,84.7474377 258.633214,84.6413721 C258.832191,84.5418833 259.179178,84.531945 259.648,84.531945 L263.432,84.531945 C263.709431,84.531945 263.953079,84.5990229 264.155289,84.7545689 C264.324,86.1743306 263.572861,87.4599341 262.247918,88.9811642 C260.781251,90.6651156 258.696121,92.1072493 256.009197,93.3285785 C253.29151,94.5638909 250.174586,95.173945 246.662,95.173945 C241.122975,95.173945 236.682572,93.4735482 233.36516,90.0201768 C230.020128,86.5380532 228.21179,81.7717774 227.881196,75.7499191 L227.796446,72.8683904 L227.881157,70.0729225 Z M259.681492,70.5034706 C259.875544,65.7583121 258.690982,61.9512463 256.190823,59.0563251 C253.824187,56.31601 250.654343,54.925945 246.662,54.925945 C242.601416,54.925945 239.431059,56.3235742 237.124638,59.066345 C234.703497,61.9455394 233.545159,65.7271683 233.726418,70.7825574 L259.681492,70.5034706 Z"/>
    <path fill="#A6C0D5" d="M317.569647 95.93C324.707647 95.93 330.19948 94.0071667 334.045147 90.1615 337.890814 86.3158333 339.813647 80.492 339.813647 72.69L339.813647 72.69 339.813647 38.992C339.813647 38.3833333 339.633814 37.8991667 339.274147 37.5395 338.91448 37.1798333 338.45798 37 337.904647 37L337.904647 37 333.920647 37C333.31198 37 332.841647 37.1798333 332.509647 37.5395 332.177647 37.8991667 332.011647 38.3833333 332.011647 38.992L332.011647 38.992 332.011647 72.856C332.011647 78.2233333 330.752814 82.2488333 328.235147 84.9325 325.71748 87.6161667 322.162314 88.958 317.569647 88.958 312.921647 88.958 309.338814 87.63 306.821147 84.974 304.30348 82.318 303.044647 78.2786667 303.044647 72.856L303.044647 72.856 303.044647 38.992C303.044647 38.3833333 302.864814 37.8991667 302.505147 37.5395 302.14548 37.1798333 301.661314 37 301.052647 37L301.052647 37 297.068647 37C296.515314 37 296.072647 37.1798333 295.740647 37.5395 295.408647 37.8991667 295.242647 38.3833333 295.242647 38.992L295.242647 38.992 295.242647 72.69C295.242647 80.492 297.179314 86.3158333 301.052647 90.1615 304.92598 94.0071667 310.431647 95.93 317.569647 95.93zM358.840176 95.1C359.39351 95.1 359.85001 94.9201667 360.209676 94.5605 360.569343 94.2008333 360.749176 93.7443333 360.749176 93.191L360.749176 93.191 360.749176 38.909C360.749176 38.3003333 360.583176 37.83 360.251176 37.498 359.919176 37.166 359.448843 37 358.840176 37L358.840176 37 354.690176 37C354.136843 37 353.694176 37.1798333 353.362176 37.5395 353.030176 37.8991667 352.864176 38.3556667 352.864176 38.909L352.864176 38.909 352.864176 93.191C352.864176 93.7443333 353.030176 94.2008333 353.362176 94.5605 353.694176 94.9201667 354.136843 95.1 354.690176 95.1L354.690176 95.1 358.840176 95.1zM128.587156 0L72.8073394 72.2201835 110.658936 128 55.1926606 89.8348624 0 128 37.5779817 72.2201835 0 17.2435963 55.1926606 54.6055046 128.587156 0zM70.3388503 72.1443206L118.122 10.278 55.2473176 57.0576582 7.58 24.79 39.9949829 72.212039 7.58 120.326 55.1898527 87.405214 103.033 120.326 70.3388503 72.1443206z"/>
    <path fill="#00559B" d="M56.1926606,72.2201835 L0,128 L37.5779817,72.2201835 L56.1926606,72.2201835 Z M51.338,74.22 L38.641,74.22 L13.008,112.27 L51.338,74.22 Z"/>
    <path fill="#0073CD" d="M128.587156,0 L72.8073394,72.2201835 L54.1926606,72.2201835 L128.587156,0 Z M109.884,20.944 L59.123,70.22 L71.824,70.22 L109.884,20.944 Z"/>
  </g>
</svg>
